<svg width="30" height="31" fill="none" xmlns="http://www.w3.org/2000/svg"><path d="M14.982.412c2.079 0 4.026.394 5.842 1.183a15.433 15.433 0 014.767 3.208 15.06 15.06 0 013.226 4.749C29.606 11.368 30 13.315 30 15.394c0 2.079-.394 4.027-1.183 5.842a15.276 15.276 0 01-3.226 4.767 15.276 15.276 0 01-4.767 3.226c-1.816.789-3.763 1.183-5.842 1.183-2.079 0-4.026-.394-5.842-1.183a15.06 15.06 0 01-4.75-3.226 15.433 15.433 0 01-3.207-4.767C.394 19.42 0 17.474 0 15.395s.394-4.026 1.183-5.842a15.212 15.212 0 013.208-4.75A15.212 15.212 0 019.14 1.596C10.956.806 12.903.412 14.982.412zm0 23.441c1.17 0 2.27-.221 3.298-.663a8.526 8.526 0 002.688-1.81 8.526 8.526 0 001.81-2.688 8.255 8.255 0 00.663-3.298c0-1.17-.221-2.264-.663-3.28a8.583 8.583 0 00-1.81-2.67 8.524 8.524 0 00-2.688-1.81 8.255 8.255 0 00-3.298-.663 8.166 8.166 0 00-3.262.663 8.526 8.526 0 00-2.688 1.81 8.583 8.583 0 00-1.81 2.67 8.127 8.127 0 00-.663 3.28c0 1.171.221 2.27.663 3.298a8.526 8.526 0 001.81 2.688 8.527 8.527 0 002.688 1.81 8.167 8.167 0 003.262.663zm.717-8.208a11.17 11.17 0 00-3.316 1.756 11.53 11.53 0 00-2.562 2.76c-1.123-1.242-1.745-2.724-1.864-4.444a4.2 4.2 0 00.52.036h.484c2.198 0 4.3-.37 6.308-1.111l.215.501.215.502zm.896-1.541a17.241 17.241 0 004.194-2.652 6.698 6.698 0 011.218 3.906 11.493 11.493 0 00-2.652-.322c-.789 0-1.553.083-2.294.25a32.459 32.459 0 01-.215-.59 5.16 5.16 0 00-.251-.592zm-5.699 7.025a9.627 9.627 0 012.294-2.563 9.951 9.951 0 012.975-1.595c.263.813.478 1.643.645 2.491.167.849.299 1.715.394 2.599a6.771 6.771 0 01-2.222.358 6.92 6.92 0 01-4.086-1.29zm6.63-4.516c.67-.12 1.28-.18 1.829-.18.884 0 1.72.12 2.509.359a6.902 6.902 0 01-1.147 2.688 6.79 6.79 0 01-2.15 1.971 23.037 23.037 0 00-1.04-4.838zm2.366-6.237a22.51 22.51 0 01-1.9 1.38 14.73 14.73 0 01-2.006 1.093 30.666 30.666 0 00-1.309-2.168 24.725 24.725 0 00-1.523-2.061 6.498 6.498 0 011.828-.25c.932 0 1.816.172 2.652.519a7.202 7.202 0 012.258 1.487zm-5.232 3.011a17.1 17.1 0 01-5.7.968h-.483l-.412-.036a6.929 6.929 0 011.218-3.01 6.935 6.935 0 012.473-2.151 22.467 22.467 0 012.903 4.229z" fill="#252525"/></svg>