<svg width="135" height="28" fill="none" xmlns="http://www.w3.org/2000/svg"><path d="M43.731 22.866a3.028 3.028 0 01-1.908-.549 1.784 1.784 0 01-.72-1.497V10.226a.298.298 0 01.331-.331h1.92c.217 0 .32.114.32.331v9.771c0 .435.194.652.595.652.17.007.339-.012.502-.057.229 0 .355.068.366.274l.172 1.429a.295.295 0 01-.153.32.297.297 0 01-.122.034c-.42.139-.86.212-1.303.217zm10.8-1.223a5.382 5.382 0 01-6.857 0 4.572 4.572 0 010-6.434 5.406 5.406 0 016.857 0 4.64 4.64 0 010 6.423v.011zm-5.051-1.509a2.434 2.434 0 003.269 0 2.56 2.56 0 000-3.36 2.435 2.435 0 00-3.269 0 2.56 2.56 0 000 3.36zm16.914-5.862c.217 0 .32.114.32.331v8.194a3.725 3.725 0 01-1.268 2.937 4.8 4.8 0 01-3.326 1.143 5.348 5.348 0 01-3.097-.857 3.425 3.425 0 01-1.497-2.286c0-.228 0-.331.308-.331h1.92a.422.422 0 01.377.263c.125.347.373.636.697.811.396.204.836.306 1.28.297a2.02 2.02 0 001.475-.525 1.943 1.943 0 00.537-1.429v-.72a3.83 3.83 0 01-2.377.743 4.436 4.436 0 01-3.246-1.246 4.572 4.572 0 010-6.354 4.47 4.47 0 013.246-1.234 3.84 3.84 0 012.434.788v-.183a.296.296 0 01.19-.313.298.298 0 01.13-.018l1.897-.011zm-4.434 6.537a2.01 2.01 0 001.566-.675 2.8 2.8 0 000-3.428 2.001 2.001 0 00-1.555-.663 2.055 2.055 0 00-1.588.674 2.423 2.423 0 00-.617 1.715 2.47 2.47 0 00.605 1.702 2.07 2.07 0 001.589.675zm14.617.834a5.406 5.406 0 01-6.857 0 4.651 4.651 0 010-6.434 5.417 5.417 0 016.857 0 4.64 4.64 0 010 6.422v.012zm-5.063-1.509a2.284 2.284 0 001.646.629 2.287 2.287 0 001.634-.629 2.594 2.594 0 000-3.36 2.285 2.285 0 00-1.634-.628 2.287 2.287 0 00-1.646.628 2.595 2.595 0 000 3.36zm10.48-7.805a1.657 1.657 0 01-2.183 0 1.384 1.384 0 010-2.012 1.692 1.692 0 012.183 0 1.382 1.382 0 010 2.012zm.24 10.537c-.68.033-1.35-.16-1.908-.549a1.804 1.804 0 01-.709-1.497v-6.217a.296.296 0 01.331-.331h1.92c.218 0 .32.114.32.331v5.394c0 .435.195.652.583.652a1.77 1.77 0 00.515-.057c.228 0 .354.068.365.274l.172 1.429a.295.295 0 01-.153.32.297.297 0 01-.121.034c-.425.14-.868.213-1.315.217zm8.652-8.869a4.48 4.48 0 013.268 1.235 4.686 4.686 0 010 6.388 4.442 4.442 0 01-3.268 1.246 3.93 3.93 0 01-2.389-.743v4.126c0 .217-.114.32-.331.32h-1.92a.274.274 0 01-.32-.32v-9.372a.596.596 0 00-.675-.674h-.377c-.251 0-.377-.091-.377-.274V14.58a.365.365 0 01.263-.377 3.429 3.429 0 011.234-.206 2.114 2.114 0 012.069 1.143 3.855 3.855 0 012.823-1.143zm-1.783 6.137a2.183 2.183 0 003.154 0c.43-.478.655-1.106.629-1.748a2.434 2.434 0 00-.629-1.749 2.183 2.183 0 00-3.154 0 2.526 2.526 0 00-.606 1.749 2.56 2.56 0 00.606 1.748zm11.703 2.732a5.509 5.509 0 01-2.938-.709 2.79 2.79 0 01-1.325-2.022c0-.229.08-.343.331-.343h1.68a.435.435 0 01.377.251c.24.617.869.926 1.875.926.35.016.7-.055 1.017-.206a.66.66 0 00.388-.56c0-.297-.183-.503-.548-.64a6.187 6.187 0 00-1.337-.286 12.698 12.698 0 01-1.6-.285 2.628 2.628 0 01-1.338-.766 2.446 2.446 0 01.492-3.543 4.71 4.71 0 012.766-.731 5.054 5.054 0 012.697.674 2.552 2.552 0 011.257 1.794c0 .229-.103.343-.309.343H102.6a.353.353 0 01-.343-.206 1.144 1.144 0 00-.594-.605 2.013 2.013 0 00-.983-.229 1.992 1.992 0 00-.972.194.573.573 0 00-.365.526.732.732 0 00.548.674c.439.166.895.28 1.36.343.535.07 1.065.17 1.589.297a2.63 2.63 0 011.337.766 2.162 2.162 0 01.56 1.566 2.288 2.288 0 01-1.063 1.988 4.992 4.992 0 01-2.868.789zm16.011-.571a.313.313 0 01-.004.121.323.323 0 01-.143.193.315.315 0 01-.116.04 4.39 4.39 0 01-1.291.217 2.533 2.533 0 01-2.286-.994 4.136 4.136 0 01-2.914.994 3.539 3.539 0 01-2.675-1.04 3.753 3.753 0 01-1.017-2.754v-4.469c0-.217.103-.331.32-.331h1.92c.217 0 .32.114.32.331v4.126c-.02.514.155 1.017.492 1.406a1.712 1.712 0 001.314.537 1.895 1.895 0 001.372-.503 1.836 1.836 0 00.514-1.36v-4.206c0-.217.103-.331.32-.331h1.943c.217 0 .32.114.32.331v5.383c0 .446.194.663.571.663a1.81 1.81 0 00.526-.057.294.294 0 01.255.046c.036.026.066.06.088.1.02.04.032.083.034.128l.137 1.429zm18.16-.001c.01.041.011.084.003.125a.299.299 0 01-.051.115.276.276 0 01-.095.081.277.277 0 01-.12.034 4.427 4.427 0 01-1.314.217 3.053 3.053 0 01-1.909-.549 1.785 1.785 0 01-.765-1.497v-2.686a2.026 2.026 0 00-.48-1.405 1.624 1.624 0 00-1.28-.537 1.436 1.436 0 00-1.143.502 2.036 2.036 0 00-.435 1.349v4.217c0 .217-.102.332-.32.332h-1.931a.297.297 0 01-.331-.332v-4.126a2.117 2.117 0 00-.446-1.405 1.488 1.488 0 00-1.143-.537 1.657 1.657 0 00-1.257.502 1.889 1.889 0 00-.469 1.349v4.217a.3.3 0 01-.013.133.3.3 0 01-.184.185.305.305 0 01-.134.014h-1.863c-.217 0-.32-.115-.32-.332v-5.383a.588.588 0 00-.401-.65.596.596 0 00-.273-.024h-.377c-.252 0-.378-.091-.378-.274V14.58a.371.371 0 01.263-.377 3.436 3.436 0 011.235-.206 2.15 2.15 0 012.034 1.052 3.855 3.855 0 012.903-1.052 3.28 3.28 0 012.708 1.212 3.776 3.776 0 012.995-1.211 3.606 3.606 0 012.708 1.04 3.716 3.716 0 011.017 2.754v2.205c0 .435.195.652.56.652.177.008.355-.011.526-.057.237 0 .362.091.377.274l.103 1.428zM.966 12.786a15.646 15.646 0 0130.365 0H29.96a11.074 11.074 0 00-6.48 1.977c-.11.08-.224.152-.343.217h-.16a3.253 3.253 0 01-.343-.217 11.622 11.622 0 00-12.971 0c-.11.08-.224.152-.343.217h-.16a3.26 3.26 0 01-.343-.217 11.074 11.074 0 00-6.48-1.977H.966zm26.525 7.166a3.851 3.851 0 012.469-.812h1.84v-3.668h-1.84a7.291 7.291 0 00-4.377 1.394 4.16 4.16 0 01-4.937 0 7.771 7.771 0 00-8.88 0 4.16 4.16 0 01-4.938 0 7.29 7.29 0 00-4.434-1.394H.497v3.668h1.84a3.852 3.852 0 012.469.812 7.749 7.749 0 008.868 0 3.875 3.875 0 012.469-.812 3.828 3.828 0 012.468.812 7.77 7.77 0 008.88 0zm0 6.56a3.851 3.851 0 012.469-.812h1.84v-3.668h-1.84a7.291 7.291 0 00-4.377 1.394 4.16 4.16 0 01-4.937 0 7.771 7.771 0 00-8.88 0 4.16 4.16 0 01-4.938 0 7.292 7.292 0 00-4.434-1.394H.497V25.7h1.84a3.852 3.852 0 012.469.812 7.749 7.749 0 008.868 0 3.875 3.875 0 012.469-.812 3.828 3.828 0 012.468.812 7.77 7.77 0 008.88 0z" fill="#252525"/></svg>