<svg width="153" height="35" fill="none" xmlns="http://www.w3.org/2000/svg"><path d="M.636 34.512h34.2V.312H.636v34.2zm27.617-20.39h-7.227V6.893h7.227v7.227zM7.217 6.893h7.23v13.808h13.806v7.227H7.217V6.894zM57.107.312a17.1 17.1 0 1017.1 17.1 17.12 17.12 0 00-17.1-17.1zm0 27.617a10.517 10.517 0 1110.517-10.517 10.534 10.534 0 01-10.518 10.517zM135.397.312a17.098 17.098 0 00-16.772 20.435A17.097 17.097 0 00141.94 33.21a17.095 17.095 0 007.673-6.298 17.094 17.094 0 002.883-9.5 17.12 17.12 0 00-17.099-17.1zm0 27.617a10.517 10.517 0 1110.516-10.517 10.531 10.531 0 01-10.516 10.517zM96.252.312a17.1 17.1 0 1017.1 17.1 17.122 17.122 0 00-17.1-17.1zm0 27.617a10.518 10.518 0 119.984-13.808h-9.984v6.581h9.984a10.537 10.537 0 01-9.984 7.227z" fill="#252525"/></svg>